<?xml version="1.0" encoding="utf-8"?>
<!-- Generator: Adobe Illustrator 23.1.0, SVG Export Plug-In . SVG Version: 6.00 Build 0)  -->
<svg version="1.1" id="Layer_1" xmlns="http://www.w3.org/2000/svg" xmlns:xlink="http://www.w3.org/1999/xlink" x="0px" y="0px"
	 viewBox="0 0 788.18 225.17" style="enable-background:new 0 0 788.18 225.17;" xml:space="preserve">
<style type="text/css">
	.st0{fill:#1C1A16;}
	.st1{fill:#FFFFFF;}
</style>
<path class="st0" d="M788.18,202.76c0,12.54-10.07,22.4-22.63,22.4H22.09C9.54,225.17,0,215.59,0,203.05V22.08
	C0,9.54,9.54,0,22.09,0h743.46c12.56,0,22.52,9.54,22.52,22.08v180.98L788.18,202.76z"/>
<path class="st1" d="M172.59,111.3c-0.18-19.09,15.64-28.39,16.36-28.82C180,69.42,166.12,67.64,161.24,67.5
	c-11.65-1.22-22.96,6.98-28.89,6.98c-6.05,0-15.22-6.86-25.06-6.66c-12.68,0.21-24.55,7.54-31.05,18.94
	c-13.42,23.24-3.41,57.4,9.45,76.2c6.44,9.2,13.96,19.47,23.8,19.11c9.63-0.4,13.22-6.13,24.84-6.13c11.52,0,14.9,6.13,24.93,5.9
	c10.33-0.17,16.83-9.24,23.04-18.53c7.45-10.54,10.43-20.93,10.55-21.47C192.61,141.76,172.79,134.2,172.59,111.3"/>
<path class="st1" d="M153.63,55.14c5.18-6.47,8.73-15.29,7.73-24.23c-7.49,0.33-16.86,5.18-22.25,11.52
	c-4.78,5.58-9.05,14.73-7.95,23.33C139.59,66.39,148.22,61.52,153.63,55.14"/>
<path class="st1" d="M311.93,180.76h-13.45l-7.38-23.17H265.5l-7.03,23.17h-13.1l25.4-78.86h15.66L311.93,180.76z M288.89,147.87
	l-6.66-20.59c-0.71-2.1-2.04-7.05-3.98-14.85h-0.23c-0.78,3.36-2.04,8.3-3.75,14.85l-6.55,20.59H288.89z"/>
<path class="st1" d="M377.22,151.62c0,9.67-2.61,17.32-7.84,22.93c-4.68,4.99-10.49,7.48-17.42,7.48c-7.49,0-12.88-2.7-16.15-8.07
	h-0.22v29.95h-12.64v-61.3c0-6.08-0.15-12.31-0.46-18.72h11.11l0.71,9.01h0.24c4.21-6.79,10.61-10.18,19.18-10.18
	c6.7,0,12.31,2.65,16.79,7.96C374.98,135.99,377.22,142.97,377.22,151.62 M364.35,152.08c0-5.54-1.25-10.1-3.74-13.69
	c-2.73-3.74-6.4-5.62-10.99-5.62c-3.13,0-5.96,1.04-8.48,3.1c-2.54,2.08-4.2,4.79-4.97,8.14c-0.39,1.56-0.58,2.84-0.58,3.85v9.48
	c0,4.13,1.26,7.63,3.79,10.46c2.54,2.86,5.84,4.27,9.89,4.27c4.76,0,8.47-1.82,11.11-5.49
	C363.03,162.92,364.35,158.09,364.35,152.08"/>
<path class="st1" d="M442.61,151.62c0,9.67-2.61,17.32-7.84,22.93c-4.68,4.99-10.48,7.48-17.43,7.48c-7.48,0-12.86-2.7-16.14-8.07
	h-0.23v29.95h-12.63v-61.3c0-6.08-0.16-12.31-0.46-18.72h11.11l0.71,9.01h0.24c4.2-6.79,10.59-10.18,19.18-10.18
	c6.7,0,12.3,2.65,16.79,7.96C440.38,135.99,442.61,142.97,442.61,151.62 M429.75,152.08c0-5.54-1.25-10.1-3.75-13.69
	c-2.73-3.74-6.39-5.62-10.99-5.62c-3.13,0-5.96,1.04-8.48,3.1c-2.53,2.08-4.19,4.79-4.96,8.14c-0.4,1.56-0.59,2.84-0.59,3.85v9.48
	c0,4.13,1.26,7.63,3.79,10.46c2.54,2.86,5.82,4.27,9.89,4.27c4.75,0,8.46-1.82,11.11-5.49
	C428.41,162.92,429.75,158.09,429.75,152.08"/>
<path class="st1" d="M515.74,158.64c0,6.71-2.32,12.16-7.01,16.38c-5.14,4.61-12.29,6.9-21.47,6.9c-8.48,0-15.29-1.63-20.45-4.91
	l2.93-10.53c5.55,3.36,11.63,5.03,18.27,5.03c4.76,0,8.47-1.07,11.13-3.21c2.65-2.15,3.97-5.03,3.97-8.62c0-3.2-1.09-5.9-3.27-8.08
	c-2.18-2.19-5.82-4.22-10.89-6.1c-13.81-5.16-20.7-12.7-20.7-22.62c0-6.48,2.41-11.8,7.25-15.93c4.83-4.14,11.27-6.22,19.3-6.22
	c7.18,0,13.14,1.26,17.89,3.75l-3.15,10.3c-4.45-2.41-9.47-3.63-15.1-3.63c-4.45,0-7.91,1.09-10.4,3.28
	c-2.1,1.95-3.15,4.33-3.15,7.14c0,3.12,1.2,5.7,3.62,7.71c2.1,1.88,5.92,3.9,11.47,6.09c6.79,2.73,11.77,5.93,14.98,9.59
	C514.14,148.62,515.74,153.18,515.74,158.64"/>
<path class="st1" d="M557.5,133.37h-13.92v27.61c0,7.02,2.46,10.53,7.38,10.53c2.25,0,4.12-0.2,5.61-0.58l0.35,9.59
	c-2.48,0.94-5.77,1.4-9.82,1.4c-4.99,0-8.89-1.52-11.7-4.55c-2.8-3.04-4.21-8.16-4.21-15.33v-28.67h-8.31v-9.48h8.31v-10.4
	l12.4-3.75v14.15h13.92V133.37z"/>
<path class="st1" d="M620.33,151.85c0,8.74-2.49,15.91-7.48,21.53c-5.23,5.78-12.18,8.65-20.82,8.65c-8.36,0-14.99-2.77-19.95-8.31
	c-4.96-5.54-7.43-12.52-7.43-20.93c0-8.82,2.55-16.04,7.66-21.64c5.1-5.63,11.98-8.43,20.64-8.43c8.34,0,15.06,2.77,20.13,8.31
	C617.92,136.42,620.33,143.35,620.33,151.85 M607.22,152.26c0-5.24-1.13-9.73-3.4-13.49c-2.64-4.54-6.43-6.81-11.34-6.81
	c-5.08,0-8.94,2.27-11.58,6.81c-2.27,3.76-3.38,8.33-3.38,13.73c0,5.24,1.12,9.73,3.38,13.48c2.72,4.54,6.55,6.8,11.48,6.8
	c4.82,0,8.61-2.3,11.33-6.92C606.05,162.04,607.22,157.5,607.22,152.26"/>
<path class="st1" d="M661.39,135c-1.25-0.22-2.57-0.35-3.97-0.35c-4.44,0-7.88,1.69-10.3,5.04c-2.1,2.97-3.15,6.71-3.15,11.23v29.83
	h-12.63l0.11-38.95c0-6.55-0.16-12.52-0.46-17.91h11l0.46,10.89h0.34c1.33-3.74,3.45-6.75,6.32-9.01c2.8-2.03,5.86-3.05,9.13-3.05
	c1.16,0,2.22,0.08,3.15,0.22V135z"/>
<path class="st1" d="M717.89,149.63c0,2.27-0.15,4.17-0.45,5.73h-37.9c0.14,5.62,1.98,9.91,5.49,12.88
	c3.19,2.65,7.33,3.96,12.4,3.96c5.6,0,10.71-0.89,15.32-2.69l1.98,8.78c-5.38,2.34-11.73,3.52-19.07,3.52
	c-8.8,0-15.73-2.6-20.76-7.79c-5.02-5.18-7.54-12.15-7.54-20.88c0-8.57,2.34-15.71,7.03-21.41c4.9-6.08,11.54-9.12,19.88-9.12
	c8.19,0,14.4,3.04,18.62,9.12C716.22,136.56,717.89,142.53,717.89,149.63 M705.84,146.35c0.09-3.73-0.73-6.97-2.45-9.71
	c-2.19-3.51-5.55-5.27-10.07-5.27c-4.13,0-7.48,1.72-10.05,5.15c-2.11,2.73-3.36,6-3.73,9.82H705.84z"/>
<path class="st1" d="M284.22,53.38c0,6.97-2.08,12.23-6.26,15.75c-3.87,3.25-9.37,4.89-16.49,4.89c-3.53,0-6.56-0.15-9.09-0.46
	v-38.1c3.29-0.54,6.86-0.8,10.69-0.8c6.79,0,11.9,1.47,15.36,4.43C282.29,42.41,284.22,47.18,284.22,53.38 M277.68,53.56
	c0-4.53-1.21-7.99-3.6-10.41c-2.4-2.41-5.88-3.62-10.49-3.62c-1.96,0-3.62,0.13-5,0.4V68.9c0.77,0.12,2.17,0.17,4.2,0.17
	c4.75,0,8.43-1.31,11-3.96C276.38,62.46,277.68,58.62,277.68,53.56"/>
<path class="st1" d="M318.94,59.48c0,4.29-1.23,7.81-3.68,10.56c-2.57,2.85-5.98,4.27-10.23,4.27c-4.11,0-7.37-1.37-9.8-4.09
	c-2.43-2.71-3.64-6.14-3.64-10.29c0-4.33,1.25-7.88,3.77-10.63c2.5-2.76,5.89-4.14,10.14-4.14c4.11,0,7.39,1.37,9.88,4.08
	C317.75,51.89,318.94,55.3,318.94,59.48 M312.5,59.68c0-2.58-0.56-4.78-1.67-6.63c-1.3-2.23-3.16-3.35-5.57-3.35
	c-2.48,0-4.39,1.12-5.69,3.35c-1.12,1.85-1.67,4.09-1.67,6.73c0,2.58,0.56,4.79,1.67,6.64c1.33,2.22,3.2,3.34,5.63,3.34
	c2.37,0,4.23-1.13,5.57-3.4C311.92,64.48,312.5,62.26,312.5,59.68"/>
<path class="st1" d="M365.49,45.74l-8.75,27.93h-5.68l-3.63-12.12c-0.91-3.03-1.66-6.05-2.24-9.03h-0.11
	c-0.55,3.06-1.3,6.07-2.25,9.03l-3.85,12.12h-5.75l-8.21-27.93h6.38l3.15,13.28c0.77,3.14,1.4,6.13,1.9,8.96h0.12
	c0.46-2.34,1.21-5.31,2.3-8.91l3.96-13.33h5.05l3.8,13.04c0.93,3.19,1.68,6.25,2.24,9.2h0.17c0.43-2.88,1.05-5.94,1.91-9.2
	l3.39-13.04H365.49z"/>
<path class="st1" d="M397.68,73.67h-6.21V57.68c0-4.94-1.88-7.39-5.64-7.39c-1.84,0-3.32,0.68-4.48,2.03
	c-1.14,1.37-1.72,2.95-1.72,4.8v16.56h-6.21V53.73c0-2.46-0.07-5.12-0.22-7.99h5.45l0.29,4.37h0.18c0.71-1.36,1.79-2.48,3.21-3.37
	c1.68-1.04,3.56-1.58,5.63-1.58c2.61,0,4.78,0.86,6.5,2.54c2.14,2.06,3.21,5.16,3.21,9.25V73.67z"/>
<rect x="408.59" y="32.92" class="st1" width="6.22" height="40.75"/>
<path class="st1" d="M451.36,59.48c0,4.29-1.23,7.81-3.69,10.56c-2.56,2.85-5.98,4.27-10.23,4.27c-4.1,0-7.36-1.37-9.8-4.09
	c-2.43-2.71-3.64-6.14-3.64-10.29c0-4.33,1.24-7.88,3.76-10.63c2.51-2.76,5.88-4.14,10.15-4.14c4.09,0,7.39,1.37,9.88,4.08
	C450.17,51.89,451.36,55.3,451.36,59.48 M444.93,59.68c0-2.58-0.56-4.78-1.67-6.63c-1.31-2.23-3.16-3.35-5.57-3.35
	c-2.48,0-4.39,1.12-5.7,3.35c-1.11,1.85-1.66,4.09-1.66,6.73c0,2.58,0.56,4.79,1.66,6.64c1.34,2.22,3.22,3.34,5.63,3.34
	c2.38,0,4.25-1.13,5.59-3.4C444.34,64.48,444.93,62.26,444.93,59.68"/>
<path class="st1" d="M481.42,73.67h-5.58l-0.46-3.21h-0.18c-1.92,2.57-4.63,3.85-8.15,3.85c-2.65,0-4.79-0.84-6.39-2.54
	c-1.46-1.53-2.17-3.43-2.17-5.68c0-3.41,1.42-6.02,4.29-7.82c2.84-1.8,6.86-2.68,12.03-2.64v-0.52c0-3.68-1.93-5.52-5.79-5.52
	c-2.76,0-5.19,0.7-7.29,2.07l-1.26-4.08c2.61-1.61,5.79-2.41,9.57-2.41c7.32,0,10.97,3.85,10.97,11.56v10.29
	C481.01,69.8,481.15,72.03,481.42,73.67 M474.97,64.07v-4.31c-6.86-0.11-10.29,1.77-10.29,5.64c0,1.46,0.41,2.54,1.21,3.27
	c0.79,0.72,1.8,1.09,3.02,1.09c1.36,0,2.63-0.43,3.8-1.29c1.16-0.86,1.88-1.96,2.13-3.3C474.94,64.86,474.97,64.49,474.97,64.07"/>
<path class="st1" d="M516.71,73.67h-5.52l-0.29-4.48h-0.17c-1.76,3.41-4.75,5.12-8.96,5.12c-3.38,0-6.17-1.33-8.39-3.97
	c-2.22-2.64-3.33-6.07-3.33-10.29c0-4.53,1.2-8.18,3.61-10.98c2.34-2.61,5.21-3.9,8.63-3.9c3.76,0,6.38,1.26,7.88,3.79h0.13V32.92
	h6.2v33.22C516.48,68.87,516.56,71.38,516.71,73.67 M510.28,61.89v-4.65c0-0.8-0.06-1.46-0.18-1.96c-0.35-1.49-1.1-2.76-2.26-3.77
	c-1.15-1.02-2.53-1.52-4.15-1.52c-2.31,0-4.13,0.91-5.45,2.75c-1.34,1.85-2,4.2-2,7.06c0,2.77,0.64,5.02,1.91,6.73
	c1.35,1.84,3.15,2.76,5.41,2.76c2.05,0,3.7-0.77,4.91-2.3C509.68,65.59,510.28,63.88,510.28,61.89"/>
<path class="st1" d="M569.83,59.48c0,4.29-1.23,7.81-3.7,10.56c-2.55,2.85-5.97,4.27-10.22,4.27c-4.12,0-7.38-1.37-9.8-4.09
	c-2.43-2.71-3.64-6.14-3.64-10.29c0-4.33,1.25-7.88,3.75-10.63c2.52-2.76,5.9-4.14,10.14-4.14c4.11,0,7.4,1.37,9.9,4.08
	C568.63,51.89,569.83,55.3,569.83,59.48 M563.38,59.68c0-2.58-0.56-4.78-1.67-6.63c-1.29-2.23-3.17-3.35-5.56-3.35
	c-2.5,0-4.4,1.12-5.7,3.35c-1.11,1.85-1.67,4.09-1.67,6.73c0,2.58,0.56,4.79,1.67,6.64c1.34,2.22,3.21,3.34,5.64,3.34
	c2.37,0,4.22-1.13,5.56-3.4C562.81,64.48,563.38,62.26,563.38,59.68"/>
<path class="st1" d="M603.21,73.67h-6.21V57.68c0-4.94-1.88-7.39-5.63-7.39c-1.84,0-3.34,0.68-4.48,2.03
	c-1.14,1.37-1.73,2.95-1.73,4.8v16.56h-6.2V53.73c0-2.46-0.09-5.12-0.23-7.99h5.47l0.29,4.37h0.18c0.71-1.36,1.78-2.48,3.21-3.37
	c1.68-1.04,3.57-1.58,5.63-1.58c2.61,0,4.79,0.86,6.5,2.54c2.14,2.06,3.21,5.16,3.21,9.25V73.67z"/>
<path class="st1" d="M645,50.39h-6.84v13.57c0,3.45,1.2,5.17,3.63,5.17c1.11,0,2.02-0.1,2.75-0.29l0.18,4.71
	c-1.24,0.46-2.84,0.7-4.83,0.7c-2.46,0-4.37-0.75-5.74-2.24c-1.38-1.5-2.07-4-2.07-7.54V50.39h-4.09v-4.65h4.09v-5.12l6.09-1.83
	v6.95H645V50.39z"/>
<path class="st1" d="M677.86,73.67h-6.2V57.79c0-5.01-1.88-7.51-5.64-7.51c-2.86,0-4.84,1.45-5.9,4.35
	c-0.21,0.62-0.29,1.37-0.29,2.24v16.8h-6.21V32.92h6.21v16.84h0.13c1.95-3.06,4.74-4.6,8.38-4.6c2.58,0,4.7,0.86,6.38,2.54
	c2.1,2.11,3.15,5.23,3.15,9.38V73.67z"/>
<path class="st1" d="M711.79,58.38c0,1.11-0.09,2.05-0.23,2.82h-18.63c0.07,2.76,0.96,4.86,2.7,6.31c1.57,1.31,3.61,1.96,6.09,1.96
	c2.77,0,5.27-0.44,7.54-1.32l0.96,4.31c-2.63,1.15-5.76,1.73-9.36,1.73c-4.32,0-7.73-1.28-10.21-3.81
	c-2.46-2.55-3.71-5.97-3.71-10.26c0-4.21,1.14-7.72,3.45-10.53c2.43-2.99,5.68-4.48,9.77-4.48c4.04,0,7.07,1.49,9.14,4.48
	C710.95,51.96,711.79,54.9,711.79,58.38 M705.86,56.78c0.04-1.84-0.37-3.43-1.21-4.77c-1.06-1.72-2.72-2.59-4.93-2.59
	c-2.04,0-3.68,0.84-4.96,2.53c-1.02,1.35-1.63,2.95-1.82,4.83H705.86z"/>
</svg>
