<svg id="Ebene_1" data-name="Ebene 1" xmlns="http://www.w3.org/2000/svg" viewBox="0 0 86.11 24"><defs><style>.cls-1{fill:#fff;}</style></defs><title>windows_end</title><path d="M84,24H3.24A2.56,2.56,0,0,1,.55,21.6V2.4A2.56,2.56,0,0,1,3.24,0H84a2.56,2.56,0,0,1,2.69,2.4V21.6A2.56,2.56,0,0,1,84,24Z" transform="translate(-0.55)"/><g id="bag"><path class="cls-1" d="M12.79,17.58l-6-.78V12.24h6Zm0-5.76h-6V7.5l6-.78Zm8.27,6.78-7.8-1V12.24h7.8Zm0-6.78h-7.8V6.72l7.8-1Z" transform="translate(-0.55)"/></g><path class="cls-1" d="M31.49,9.12a4.4,4.4,0,0,1-1.55.24,2.78,2.78,0,0,1-1.88-.6,2.24,2.24,0,0,1-.67-1.68,2.4,2.4,0,0,1,2.69-2.34,5.13,5.13,0,0,1,1.28.18l-.14.48a2.58,2.58,0,0,0-1.07-.18,1.78,1.78,0,0,0-2,1.8,1.73,1.73,0,0,0,1.95,1.8A2.56,2.56,0,0,0,31,8.7V7.38h-1V6.9h1.62V9.12Z" transform="translate(-0.55)"/><path class="cls-1" d="M32.84,7.8a1.12,1.12,0,0,0,1.21,1.14,2.28,2.28,0,0,0,1-.18l.13.42A2.67,2.67,0,0,1,34,9.36a1.59,1.59,0,0,1-1.75-1.62A1.63,1.63,0,0,1,33.91,6a1.41,1.41,0,0,1,1.48,1.5v.3Zm1.95-.42a.89.89,0,0,0-.88-1,1,1,0,0,0-1,1Z" transform="translate(-0.55)"/><path class="cls-1" d="M37,5.16v.9H38v.42H37V8.22c0,.42.13.6.47.6a.79.79,0,0,0,.4-.06v.42a1.62,1.62,0,0,1-.6.06A.77.77,0,0,1,36.6,9a1.09,1.09,0,0,1-.27-.84V6.42H35.8V6h.53V5.22Z" transform="translate(-0.55)"/><path class="cls-1" d="M41,5.16a.37.37,0,0,1-.41.36.41.41,0,0,1-.4-.36.41.41,0,0,1,.4-.36A.42.42,0,0,1,41,5.16ZM40.24,9.3V6.06h.67V9.3Z" transform="translate(-0.55)"/><path class="cls-1" d="M42.73,5.16v.9h.94v.42h-.94V8.22c0,.42.13.6.47.6a.79.79,0,0,0,.4-.06v.42a1.67,1.67,0,0,1-.61.06A.76.76,0,0,1,42.32,9a1.09,1.09,0,0,1-.27-.84V6.42h-.54V6h.54V5.22Z" transform="translate(-0.55)"/><path class="cls-1" d="M49.18,7.68a1.7,1.7,0,0,1-1.81,1.74,1.71,1.71,0,1,1,0-3.42A1.62,1.62,0,0,1,49.18,7.68Zm-2.82,0a1.09,1.09,0,1,0,2.15,0,1.18,1.18,0,0,0-1.08-1.26A1.13,1.13,0,0,0,46.36,7.68Z" transform="translate(-0.55)"/><path class="cls-1" d="M50,7v-.9h.61l.06.54h0A1.44,1.44,0,0,1,51.87,6a1.23,1.23,0,0,1,1.28,1.38V9.3h-.67V7.44c0-.54-.2-1-.81-1a1,1,0,0,0-.87.6,2.28,2.28,0,0,0-.07.3V9.3h-.67V7Z" transform="translate(-0.55)"/><path class="cls-1" d="M29.14,19l-1.82-6.54h1l.87,3.3c.21.84.41,1.62.54,2.28h0a23.4,23.4,0,0,1,.61-2.28l.94-3.3h1l.87,3.3c.2.78.41,1.56.54,2.22h0a19.61,19.61,0,0,1,.61-2.28l.94-3.3h.94L34.11,19h-1l-1-3.42a18.28,18.28,0,0,1-.47-2.16h0a21.13,21.13,0,0,1-.54,2.16l-1,3.42h-1Z" transform="translate(-0.55)"/><path class="cls-1" d="M37.88,13a.53.53,0,0,1-.6.54.54.54,0,1,1,0-1.08Q37.88,12.51,37.88,13ZM36.81,19V14.34h.94V19Z" transform="translate(-0.55)"/><path class="cls-1" d="M39,15.6a6.92,6.92,0,0,0-.07-1.26h.88l.06.78h0a2.08,2.08,0,0,1,1.75-.9,1.74,1.74,0,0,1,1.82,2V19h-.94v-2.7c0-.78-.34-1.38-1.21-1.38a1.34,1.34,0,0,0-1.28.9.78.78,0,0,0-.07.42v2.82H39V15.6Z" transform="translate(-0.55)"/><path class="cls-1" d="M49.39,12.12v5.7a7.27,7.27,0,0,0,.06,1.2h-.87l-.07-.84h0a1.9,1.9,0,0,1-1.75.9,2.22,2.22,0,0,1-2.22-2.4,2.36,2.36,0,0,1,2.36-2.52,1.73,1.73,0,0,1,1.54.72h0V12.06h1Zm-1,4.08a.76.76,0,0,0-.06-.36,1.36,1.36,0,0,0-1.35-1c-1,0-1.55.78-1.55,1.8A1.56,1.56,0,0,0,47,18.42a1.45,1.45,0,0,0,1.41-1c0-.12.07-.24.07-.36V16.2Z" transform="translate(-0.55)"/><path class="cls-1" d="M55.37,16.62a2.45,2.45,0,0,1-2.62,2.52,2.36,2.36,0,0,1-2.49-2.4,2.45,2.45,0,0,1,2.62-2.52A2.32,2.32,0,0,1,55.37,16.62Zm-4.1.06a1.67,1.67,0,0,0,1.61,1.8,1.71,1.71,0,0,0,1.62-1.8A1.66,1.66,0,0,0,53,14.88,1.6,1.6,0,0,0,51.27,16.68Z" transform="translate(-0.55)"/><path class="cls-1" d="M56.58,14.28l.68,2.4c.13.54.27,1,.4,1.5h0c.13-.48.27-1,.47-1.5l.88-2.4h.8l.81,2.34c.2.54.34,1.08.47,1.56h0a7.3,7.3,0,0,1,.4-1.5l.74-2.34h1L61.49,19h-.87l-.81-2.22a11.85,11.85,0,0,1-.47-1.56h0a13.21,13.21,0,0,1-.47,1.56L58,19h-.81l-1.55-4.68h.94Z" transform="translate(-0.55)"/><path class="cls-1" d="M63.92,18.12a2.58,2.58,0,0,0,1.27.36c.68,0,1-.3,1-.72s-.27-.66-.94-.84c-.94-.3-1.41-.78-1.41-1.32,0-.78.67-1.38,1.82-1.38a2.43,2.43,0,0,1,1.27.3l-.27.6a2.17,2.17,0,0,0-1.07-.3c-.54,0-.88.3-.88.66s.34.54,1,.78c.88.3,1.35.72,1.35,1.44s-.74,1.38-2,1.38a3.5,3.5,0,0,1-1.48-.3Z" transform="translate(-0.55)"/><path class="cls-1" d="M71.52,13.5h0l-1.21.6-.2-.66,1.54-.72h.81V19h-.94V13.5Z" transform="translate(-0.55)"/><path class="cls-1" d="M79.05,15.78c0,2.16-.87,3.3-2.42,3.3-1.34,0-2.29-1.14-2.35-3.24s1-3.3,2.42-3.3S79.05,13.8,79.05,15.78Zm-3.83.12c0,1.62.54,2.58,1.41,2.58s1.41-1,1.41-2.64-.47-2.58-1.41-2.58S75.22,14.16,75.22,15.9Z" transform="translate(-0.55)"/></svg>